<svg id="Layer_1" data-name="Layer 1" xmlns="http://www.w3.org/2000/svg" viewBox="0 0 528.08 187.46"><defs><style>.cls-1{fill:#dcdbdb;}.cls-2{fill:#f7f8f9;}.cls-3{fill:#ebeded;}.cls-4{fill:#fff;}</style></defs><g id="Layer_1-2" data-name="Layer 1"><path class="cls-1" d="M173,388.12c9.41,0,167.69,1,177.63.71.71,0,1.1-1.06.4-1.41-6.28-3.1-13.39-2.48-19.9-4.67-3.85-1.31-6.19-3.81-8.86-6.68A18.3,18.3,0,0,0,314,370.7a17.39,17.39,0,0,0-9-.29c-3.21.77-6,2.61-9.07,3.77-7.6,2.86-15,.14-20.41-5.49-4.49-4.64-8.88-9-15-11.51A19.88,19.88,0,0,0,244.8,357c-5.81,2.61-9.8,7.85-15.24,11.1-6.54,3.77-14.2,2.88-21.34,4s-12.63,7.16-18.89,10.61a13.45,13.45,0,0,1-6.82,2.12,39.28,39.28,0,0,1-4.16-.59c-2.16-.26-4.2-.2-5.65,1.6C172.28,386.26,172.35,388.12,173,388.12Z" transform="translate(0 -201.43)"/></g><g id="Layer_1-3" data-name="Layer 1"><path class="cls-2" d="M358.5,231.31c8.6,0,153.26.94,162.35.64a.7.7,0,0,0,.36-1.29c-5.74-2.83-12.23-2.26-18.19-4.27-3.52-1.19-5.65-3.48-8.08-6.1a16.71,16.71,0,0,0-7.52-4.91,16,16,0,0,0-8.2-.26c-2.93.7-5.5,2.39-8.29,3.44-6.95,2.62-13.7.13-18.66-5-4.1-4.25-8.11-8.24-13.67-10.52a18.21,18.21,0,0,0-14.44-.21c-5.31,2.39-9,7.18-13.93,10.16-6,3.44-13,2.63-19.5,3.67s-11.54,6.54-17.27,9.69a12.19,12.19,0,0,1-6.23,1.94,34.41,34.41,0,0,1-3.8-.54c-2-.24-3.84-.18-5.17,1.46C357.87,229.61,357.93,231.31,358.5,231.31Z" transform="translate(0 -201.43)"/><path class="cls-3" d="M409.05,236.61c6.28,0,111.9.7,118.54.48a.51.51,0,0,0,.49-.53h0a.49.49,0,0,0-.23-.41c-4.2-2.07-8.93-1.67-13.28-3.13-2.56-.86-4.13-2.53-5.91-4.45a12.33,12.33,0,0,0-5.49-3.59,11.67,11.67,0,0,0-6-.18c-2.14.5-4,1.73-6.05,2.51-5.07,1.91-10,.1-13.62-3.66-3-3.1-6-6-10-7.69a13.24,13.24,0,0,0-10.58-.14c-3.88,1.76-6.53,5.28-10.17,7.41-4.32,2.51-9.48,1.94-14.22,2.68s-8.43,4.78-12.6,7.09a9,9,0,0,1-4.56,1.41,23.66,23.66,0,0,1-2.77-.39c-1.44-.18-2.81-.15-3.78,1.06C408.62,235.37,408.62,236.61,409.05,236.61Z" transform="translate(0 -201.43)"/></g><g id="Layer_1-4" data-name="Layer 1"><path class="cls-1" d="M.35,297.4c6.13,0,109.38.67,115.87.46.46,0,.72-.69.25-.92-4.09-2-8.73-1.62-13-3.05-2.51-.85-4-2.48-5.76-4.35A12,12,0,0,0,92.36,286a11.42,11.42,0,0,0-5.86-.19c-2.08.51-3.92,1.71-5.91,2.46-5,1.87-9.78.09-13.31-3.58-2.93-3-5.8-5.88-9.76-7.51a13,13,0,0,0-10.31-.14c-3.79,1.7-6.39,5.12-9.94,7.24-4.27,2.46-9.26,1.88-13.92,2.62S15.12,291.6,11,293.85a8.71,8.71,0,0,1-4.45,1.39,24.56,24.56,0,0,1-2.71-.39c-1.41-.17-2.74-.13-3.69,1C-.1,296.19-.06,297.4.35,297.4Z" transform="translate(0 -201.43)"/><path class="cls-4" d="M36.43,301.19c4.48,0,79.86.49,84.6.34a.37.37,0,0,0,.35-.38h0a.37.37,0,0,0-.16-.3c-3-1.48-6.38-1.18-9.48-2.23a10,10,0,0,1-4.22-3.18,8.8,8.8,0,0,0-3.92-2.56,8.36,8.36,0,0,0-4.27-.13A36.06,36.06,0,0,0,95,294.54c-3.61,1.37-7.13.07-9.72-2.61a22.28,22.28,0,0,0-7.12-5.49,9.51,9.51,0,0,0-7.56-.1c-2.76,1.26-4.66,3.78-7.26,5.29-3.08,1.8-6.76,1.39-10.15,1.92s-6,3.41-9,5.06a6.36,6.36,0,0,1-3.25,1,16.55,16.55,0,0,1-2-.28,2.7,2.7,0,0,0-2.7.76C36.12,300.3,36.12,301.19,36.43,301.19Z" transform="translate(0 -201.43)"/></g></svg>