<?xml version="1.0" encoding="utf-8"?>
<!-- Generator: Adobe Illustrator 26.0.0, SVG Export Plug-In . SVG Version: 6.00 Build 0)  -->
<svg version="1.1" id="Layer_1" xmlns="http://www.w3.org/2000/svg" xmlns:xlink="http://www.w3.org/1999/xlink" x="0px" y="0px"
	 viewBox="0 0 1997.6 914.5" style="enable-background:new 0 0 1997.6 914.5;" xml:space="preserve">
<style type="text/css">
	.st0{clip-path:url(#SVGID_00000041255834411775381130000013135048598367987096_);}
	.st1{fill:#A2D291;}
	.st2{fill:#CBE4B7;}
</style>
<g>
	<g>
		<defs>
			<rect id="SVGID_1_" width="1997.6" height="914.5"/>
		</defs>
		<clipPath id="SVGID_00000103967759847638909230000000652959759053595542_">
			<use xlink:href="#SVGID_1_"  style="overflow:visible;"/>
		</clipPath>
		<g style="clip-path:url(#SVGID_00000103967759847638909230000000652959759053595542_);">
			<path class="st1" d="M2326.1,268.1c0,0-3.8-0.4-11.1-1.3c-75.1-8.6-528.9-48.4-1229.7,126.7C316.4,585.9,15.6,552.4,15.6,552.4
				l-395.5-53c0,0-257.8-83.6-1306.1,128.2s523,298.2,523,298.2L2668.3,962L2326.1,268.1z"/>
			<path class="st2" d="M2342,448.9c0,0-68.2,21-276.1-23.6c0,0-63.3-19.8-122.7,42.1c0,0-9.9,43.4-79.3,34.7
				c-69.4-8.8-47.1,29.7-47.1,29.7s18.7,37,273.8,48.4c0,0,162.1-7.6,251.3-44.6C2431.3,498.4,2342,448.9,2342,448.9z"/>
			<path class="st2" d="M2353.4,700.4c0,0-30.9,42.1-101.6,37c-70.5-5-168.4-24.6-254,32.8c-85.5,57.3,288.5,106.9,288.5,106.9
				L2353.4,700.4z"/>
			<path class="st2" d="M1885.1,788.8c0,0-90.3-74.9-345.6-18.5c0,0-53.3,14.1-169.8-13c0,0-97.7-35.8-206.7,23.6
				c-109,59.4,424.9,30.9,424.9,30.9L1885.1,788.8z"/>
			<path class="st2" d="M1420.7,571.6c0,0-95.3-35.8-191.5-21c0,0-78.7,14.9-68.6,30.3c0,0-23.6,9.9,125.2,3
				S1389.1,567.2,1420.7,571.6z"/>
			<path class="st2" d="M1396,652c0,0-29,6.1-175.9-27.1c0,0-127.5-19.8-249-6.1c0,0-118.9,3.8-120.2,22.1c0,0,35.8,11.8,323.9,8
				L1396,652z"/>
			<path class="st2" d="M674.8,483.2l-338.8,53.7c0,0-167.1,44.6-431-6.1c0,0-382.6-55.6-619-39.6c-236.4,16-191.9,70.5-191.9,70.5
				s1.1,83.1,185.8,104c0,0,83.1,12.2,244.1-14.9c0,0,79.3-28.6,196.8,29.7c0,0,34.7,19.8,6.1,34.7c0,0-22.1,9.1,13.7,32
				c0,0,37,5.1-35.8,22.9c-73.2,17.9,408.5,29,408.5,29s23.1-30.9,207.3-60.6c0,0,35.6-3.8,124.6-57c0,0,19.8-22.1,133.8-21
				c113.9,1.1,186.9-40.8,186.9-40.8s50.5-17.9-100-35.8c-7.6-1-15.4-1.7-23.8-2.7c-179.7-18.7,6.1-23.6,76.8-23.6
				C718.6,558.1,861,524.5,674.8,483.2z"/>
			<path class="st2" d="M742.5,471.4l-338.8,53.7c0,0-167.1,44.6-431-6.1c0,0-382.6-55.6-619-39.6s-191.9,70.5-191.9,70.5
				s1.1,83.1,185.8,104c0,0,83.1,12.2,244.1-14.9c0,0,79.3-28.6,196.8,29.7c0,0,34.7,19.8,6.1,34.7c0,0-22.1,9.1,13.7,32
				c0,0,37,5.1-35.8,22.9c-73.2,17.9,408.5,29,408.5,29s23.1-30.9,207.3-60.6c0,0,35.6-3.8,124.6-57c0,0,19.8-22.1,133.8-21
				c113.9,1.1,186.9-40.8,186.9-40.8s50.5-17.9-100-35.8c-7.6-1-15.4-1.7-23.8-2.7c-179.7-18.7,6.1-23.6,76.8-23.6
				C786.3,546.3,928.6,512.7,742.5,471.4z"/>
		</g>
	</g>
</g>
</svg>
