
<svg id="Layer_1" data-name="Layer 1" xmlns="http://www.w3.org/2000/svg" viewBox="0 0 1224 424"><defs><style>.cls-1{fill:#6cbc97;}.cls-2{fill:#a2d291;}.cls-3{fill:#cbe4b7;}</style></defs><path class="cls-1" d="M168.18,395.87H80.68q-18.95,0-27.05-8.5t-8.1-27.05V145.08q0-18.93,8.3-27.24t26.85-8.3h92.78A216.73,216.73,0,0,1,209,112.08a75.89,75.89,0,0,1,27,9.76,71.05,71.05,0,0,1,18,15.33,67.91,67.91,0,0,1,11.92,20.51,68.75,68.75,0,0,1,4.1,23.73q0,43-43,62.89,56.45,18,56.45,69.93a78.63,78.63,0,0,1-12.31,43.26,73.79,73.79,0,0,1-33.2,28.41,118,118,0,0,1-30.08,7.72A306,306,0,0,1,168.18,395.87ZM103.53,153.09v74h53.13q21.68,0,33.49-4.11a32,32,0,0,0,18.07-15.62A35.26,35.26,0,0,0,213.1,189q0-21.67-15.43-28.81t-47.07-7.13Zm60.36,115.63H103.53v83.59h62.31q58.79,0,58.79-42.38,0-21.68-15.24-31.45T163.89,268.72Z"/><path class="cls-1" d="M468.38,370.67v-6.84a118.87,118.87,0,0,1-20.12,20.32,73.91,73.91,0,0,1-23.05,12.2,93.35,93.35,0,0,1-28.51,4q-19.33,0-34.67-8a58.54,58.54,0,0,1-23.73-22.07q-10-17-10-48.83V215.79q0-16,7.22-23.93T354.71,184q12.1,0,19.53,8t7.42,23.83v85.35q0,18.56,3.12,31.15T396,352q8.12,7.13,22,7.13a44.73,44.73,0,0,0,25.39-8,46.81,46.81,0,0,0,17.38-20.9q4.49-11.33,4.49-49.61V215.79q0-15.82,7.42-23.83T492,184q11.91,0,19.14,7.91t7.23,23.93V370.28q0,15.24-6.94,22.85t-17.87,7.62a23.26,23.26,0,0,1-18.06-7.91Q468.37,384.94,468.38,370.67Z"/><path class="cls-1" d="M574.43,188.64h5.86v-32q0-12.9.68-20.22a29.92,29.92,0,0,1,3.81-12.59,24.06,24.06,0,0,1,9-8.89,25.46,25.46,0,0,1,13.08-3.42q10.15,0,18.36,7.62a22.59,22.59,0,0,1,6.94,12.4q1.46,7.32,1.46,20.8v36.33h19.53q11.33,0,17.29,5.37a17.7,17.7,0,0,1,6,13.77q0,10.74-8.49,15t-24.32,4.3h-10v98a158.15,158.15,0,0,0,.88,19.24,19.63,19.63,0,0,0,4.69,10.94q3.81,4.2,12.4,4.2a66.06,66.06,0,0,0,12.7-1.66,65.52,65.52,0,0,1,12.5-1.66,16.07,16.07,0,0,1,11.62,5.17,17.39,17.39,0,0,1,5.17,12.8q0,12.88-14.06,19.72t-40.43,6.84q-25,0-37.89-8.4a39,39,0,0,1-16.9-23.24q-4-14.85-4-39.65V227.12h-7q-11.52,0-17.58-5.47a17.87,17.87,0,0,1-6-13.87A17.2,17.2,0,0,1,556,194Q562.31,188.64,574.43,188.64Z"/><path class="cls-1" d="M713.1,368.33V137.08q0-16,7.13-24.22t19.24-8.21q12.1,0,19.53,8.11t7.42,24.32V368.33q0,16.21-7.52,24.31t-19.43,8.11q-11.72,0-19-8.4T713.1,368.33Z"/><path class="cls-1" d="M970.33,305.44H866q.19,18.17,7.33,32t18.94,20.9a50.12,50.12,0,0,0,26.08,7,63.86,63.86,0,0,0,17.48-2.25,56.78,56.78,0,0,0,15.33-7,117.66,117.66,0,0,0,13.67-10.25q6.25-5.47,16.21-14.85,4.11-3.51,11.72-3.51,8.21,0,13.28,4.49t5.08,12.69q0,7.23-5.66,16.9T988.4,380.14Q977,389,959.69,394.89t-39.75,5.86q-51.37,0-79.88-29.3T811.54,292a132.59,132.59,0,0,1,7-43.85,96.88,96.88,0,0,1,20.51-34.67,88.9,88.9,0,0,1,33.2-22.16Q892,183.56,916,183.56q31.25,0,53.62,13.18t33.49,34.09q11.13,20.89,11.14,42.57,0,20.13-11.53,26.08T970.33,305.44ZM866,275.16h96.68q-2-27.35-14.74-40.92t-33.69-13.57q-19.93,0-32.72,13.77T866,275.16Z"/><path class="cls-1" d="M1112.13,323.8v44.53q0,16.21-7.62,24.31a25.4,25.4,0,0,1-19.34,8.11,24.43,24.43,0,0,1-18.94-8.2q-7.43-8.21-7.42-24.22V219.89q0-35.94,26-35.94,13.29,0,19.14,8.4t6.45,24.8q9.57-16.4,19.63-24.8t26.85-8.4a68.74,68.74,0,0,1,32.62,8.4q15.83,8.4,15.82,22.27a21.18,21.18,0,0,1-6.74,16.11q-6.73,6.35-14.55,6.35-2.93,0-14.16-3.62T1150,229.85q-11.71,0-19.14,6.15t-11.53,18.26a127.76,127.76,0,0,0-5.66,28.81Q1112.13,299.78,1112.13,323.8Z"/><circle class="cls-2" cx="1035.25" cy="108.42" r="49.25"/><circle class="cls-3" cx="993" cy="94.67" r="63"/></svg>